<?xml version="1.0" encoding="UTF-8" standalone="no"?>
<svg
   xmlns:dc="http://purl.org/dc/elements/1.1/"
   xmlns:cc="http://creativecommons.org/ns#"
   xmlns:rdf="http://www.w3.org/1999/02/22-rdf-syntax-ns#"
   xmlns:svg="http://www.w3.org/2000/svg"
   xmlns="http://www.w3.org/2000/svg"
   xmlns:sodipodi="http://sodipodi.sourceforge.net/DTD/sodipodi-0.dtd"
   xmlns:inkscape="http://www.inkscape.org/namespaces/inkscape"
   viewBox="0 0 50.000149 59.000839"
   version="1.1"
   x="0px"
   y="0px"
   id="svg56"
   sodipodi:docname="pattern.svg"
   width="50.000149"
   height="59.000839"
   inkscape:version="0.92.1 r15371">
  <metadata
     id="metadata62">
    <rdf:RDF>
      <cc:Work
         rdf:about="">
        <dc:format>image/svg+xml</dc:format>
        <dc:type
           rdf:resource="http://purl.org/dc/dcmitype/StillImage" />
        <dc:title>Group 46</dc:title>
      </cc:Work>
    </rdf:RDF>
  </metadata>
  <defs
     id="defs60" />
  <sodipodi:namedview
     pagecolor="#ffffff"
     bordercolor="#666666"
     borderopacity="1"
     objecttolerance="10"
     gridtolerance="10"
     guidetolerance="10"
     inkscape:pageopacity="0"
     inkscape:pageshadow="2"
     inkscape:window-width="752"
     inkscape:window-height="480"
     id="namedview58"
     showgrid="false"
     fit-margin-top="0"
     fit-margin-left="0"
     fit-margin-right="0"
     fit-margin-bottom="0"
     inkscape:zoom="3.2"
     inkscape:cx="25"
     inkscape:cy="22.125"
     inkscape:window-x="0"
     inkscape:window-y="25"
     inkscape:window-maximized="0"
     inkscape:current-layer="svg56" />
  <title
     id="title34">Group 46</title>
  <desc
     id="desc36">Created with Sketch.</desc>
  <g
     id="g50"
     style="fill:none;fill-rule:evenodd;stroke:none;stroke-width:1"
     transform="translate(0,8.3971231e-4)">
    <g
       transform="translate(-487,-874)"
       id="g48"
       style="fill:#000000">
      <g
         transform="translate(487,873)"
         id="g46">
        <path
           d="m 31.8023,58 h 13.315 l 2.758,-22.065 c -1.841,-0.219 -3.401,-0.991 -4.65,-2.301 -3.521,-3.697 -3.238,-10.399 -3.224,-10.683 -10e-4,-8.712 1.673,-14.012 2.572,-16.229 l -16.624,-3.5 c -0.259,3.046 -1.506,5.611 -3.715,7.636 -5.853,5.368 -16.744,5.357 -20.234,5.204 V 58 h 21.153 l 2.86,-17.164 c 0.079,-0.473 0.481,-0.823 0.96,-0.836 0.473,0.031 0.899,0.315 1.003,0.783 z m 14.198,2 h -15 c -0.469,0 -0.875,-0.325 -0.976,-0.783 l -2.884,-12.976 -2.154,12.923 C 24.9063,59.646 24.4893,60 24.0003,60 h -23 c -0.552,0 -1,-0.447 -1,-1 V 15 c 0,-0.28 0.117,-0.548 0.324,-0.736 0.207,-0.19 0.482,-0.288 0.762,-0.26 0.136,0.013 13.568,1.096 19.799,-4.622 2.066,-1.897 3.115,-4.38 3.115,-7.382 0,-0.302 0.135,-0.587 0.37,-0.776 0.234,-0.191 0.542,-0.266 0.836,-0.203 l 19,4 c 0.31,0.066 0.571,0.275 0.703,0.563 0.132,0.289 0.119,0.623 -0.034,0.9 -0.028,0.051 -2.875,5.389 -2.875,16.516 -0.004,0.108 -0.253,6.187 2.677,9.258 1.119,1.173 2.533,1.742 4.323,1.742 0.286,0 0.56,0.123 0.749,0.338 0.19,0.216 0.279,0.502 0.243,0.786 l -3,24 c -0.063,0.5 -0.488,0.876 -0.992,0.876 z"
           id="path38"
           inkscape:connector-curvature="0" />
        <path
           d="M 3,29 H 1 C 0.448,29 0,28.553 0,28 0,27.447 0.448,27 1,27 h 2 c 0.552,0 1,0.447 1,1 0,0.553 -0.448,1 -1,1"
           id="path40"
           inkscape:connector-curvature="0" />
        <path
           d="M 13,29 H 9 C 8.448,29 8,28.553 8,28 8,27.447 8.448,27 9,27 h 4 c 0.552,0 1,0.447 1,1 0,0.553 -0.448,1 -1,1 m 10,0 h -4 c -0.552,0 -1,-0.447 -1,-1 0,-0.553 0.448,-1 1,-1 h 4 c 0.552,0 1,0.447 1,1 0,0.553 -0.448,1 -1,1 m 10,0 h -4 c -0.552,0 -1,-0.447 -1,-1 0,-0.553 0.448,-1 1,-1 h 4 c 0.552,0 1,0.447 1,1 0,0.553 -0.448,1 -1,1"
           id="path42"
           inkscape:connector-curvature="0" />
        <path
           d="m 41,29 h -2 c -0.552,0 -1,-0.447 -1,-1 0,-0.553 0.448,-1 1,-1 h 2 c 0.552,0 1,0.447 1,1 0,0.553 -0.448,1 -1,1"
           id="path44"
           inkscape:connector-curvature="0" />
      </g>
    </g>
  </g>
</svg>
