<?xml version="1.0" encoding="UTF-8" standalone="no"?>
<svg
   xmlns:dc="http://purl.org/dc/elements/1.1/"
   xmlns:cc="http://creativecommons.org/ns#"
   xmlns:rdf="http://www.w3.org/1999/02/22-rdf-syntax-ns#"
   xmlns:svg="http://www.w3.org/2000/svg"
   xmlns="http://www.w3.org/2000/svg"
   xmlns:sodipodi="http://sodipodi.sourceforge.net/DTD/sodipodi-0.dtd"
   xmlns:inkscape="http://www.inkscape.org/namespaces/inkscape"
   viewBox="0 0 60 60"
   version="1.1"
   x="0px"
   y="0px"
   id="svg24"
   sodipodi:docname="noun_978799_cc.svg"
   width="60"
   height="60"
   inkscape:version="0.92.1 r15371">
  <metadata
     id="metadata30">
    <rdf:RDF>
      <cc:Work
         rdf:about="">
        <dc:format>image/svg+xml</dc:format>
        <dc:type
           rdf:resource="http://purl.org/dc/dcmitype/StillImage" />
        <dc:title>16 -Scale Tool- (Outline)</dc:title>
      </cc:Work>
    </rdf:RDF>
  </metadata>
  <defs
     id="defs28" />
  <sodipodi:namedview
     pagecolor="#ffffff"
     bordercolor="#666666"
     borderopacity="1"
     objecttolerance="10"
     gridtolerance="10"
     guidetolerance="10"
     inkscape:pageopacity="0"
     inkscape:pageshadow="2"
     inkscape:window-width="1920"
     inkscape:window-height="1123"
     id="namedview26"
     showgrid="false"
     fit-margin-top="0"
     fit-margin-left="0"
     fit-margin-right="0"
     fit-margin-bottom="0"
     inkscape:zoom="3.1466667"
     inkscape:cx="-29.586864"
     inkscape:cy="22.5"
     inkscape:window-x="0"
     inkscape:window-y="25"
     inkscape:window-maximized="1"
     inkscape:current-layer="svg24" />
  <title
     id="title2">16 -Scale Tool- (Outline)</title>
  <desc
     id="desc4">Created with Sketch.</desc>
  <g
     style="fill:#ffffff;fill-rule:evenodd;stroke:none;stroke-width:1"
     id="g14">
    <path
       d="M 2,58 H 30 V 30 H 2 Z m 29,2 H 1 C 0.447,60 0,59.552 0,59 V 29 c 0,-0.552 0.447,-1 1,-1 h 30 c 0.553,0 1,0.448 1,1 v 30 c 0,0.552 -0.447,1 -1,1 z"
       id="path6"
       inkscape:connector-curvature="0"
       style="fill:#ffffff" />
    <path
       d="M 22,38 H 58 V 2 H 22 Z m 37,2 H 21 c -0.553,0 -1,-0.448 -1,-1 V 1 c 0,-0.552 0.447,-1 1,-1 h 38 c 0.553,0 1,0.448 1,1 v 38 c 0,0.552 -0.447,1 -1,1 z"
       id="path8"
       inkscape:connector-curvature="0"
       style="fill:#ffffff" />
    <path
       d="m 33.0001,27 c -0.256,0 -0.512,-0.098 -0.707,-0.293 -0.391,-0.391 -0.391,-1.023 0,-1.414 l 21,-21 c 0.391,-0.391 1.023,-0.391 1.414,0 0.391,0.391 0.391,1.023 0,1.414 l -21,21 C 33.5121,26.902 33.2561,27 33.0001,27"
       id="path10"
       inkscape:connector-curvature="0"
       style="fill:#ffffff" />
    <path
       d="m 54.0001,12 c -0.553,0 -1,-0.448 -1,-1 V 6 h -5 c -0.553,0 -1,-0.448 -1,-1 0,-0.552 0.447,-1 1,-1 h 6 c 0.553,0 1,0.448 1,1 v 6 c 0,0.552 -0.447,1 -1,1"
       id="path12"
       inkscape:connector-curvature="0"
       style="fill:#ffffff" />
  </g>
</svg>
