<?xml version="1.0" encoding="UTF-8" standalone="no"?>
<svg
   xmlns:dc="http://purl.org/dc/elements/1.1/"
   xmlns:cc="http://creativecommons.org/ns#"
   xmlns:rdf="http://www.w3.org/1999/02/22-rdf-syntax-ns#"
   xmlns:svg="http://www.w3.org/2000/svg"
   xmlns="http://www.w3.org/2000/svg"
   xmlns:sodipodi="http://sodipodi.sourceforge.net/DTD/sodipodi-0.dtd"
   xmlns:inkscape="http://www.inkscape.org/namespaces/inkscape"
   viewBox="0 0 58.810299 59.810452"
   version="1.1"
   x="0px"
   y="0px"
   id="svg40"
   sodipodi:docname="thread.svg"
   width="58.810299"
   height="59.810452"
   inkscape:version="0.92.1 r15371">
  <metadata
     id="metadata46">
    <rdf:RDF>
      <cc:Work
         rdf:about="">
        <dc:format>image/svg+xml</dc:format>
        <dc:type
           rdf:resource="http://purl.org/dc/dcmitype/StillImage" />
        <dc:title>Group 49</dc:title>
      </cc:Work>
    </rdf:RDF>
  </metadata>
  <defs
     id="defs44" />
  <sodipodi:namedview
     pagecolor="#ffffff"
     bordercolor="#666666"
     borderopacity="1"
     objecttolerance="10"
     gridtolerance="10"
     guidetolerance="10"
     inkscape:pageopacity="0"
     inkscape:pageshadow="2"
     inkscape:window-width="750"
     inkscape:window-height="480"
     id="namedview42"
     showgrid="false"
     fit-margin-top="0"
     fit-margin-left="0"
     fit-margin-right="0"
     fit-margin-bottom="0"
     inkscape:zoom="3.1466667"
     inkscape:cx="29.4995"
     inkscape:cy="22.3105"
     inkscape:window-x="0"
     inkscape:window-y="25"
     inkscape:window-maximized="0"
     inkscape:current-layer="svg40" />
  <title
     id="title2">Group 49</title>
  <desc
     id="desc4">Created with Sketch.</desc>
  <g
     id="g34"
     style="fill:none;fill-rule:evenodd;stroke:none;stroke-width:1"
     transform="translate(-5e-4,-5e-5)">
    <g
       transform="translate(-842,-873)"
       id="g32"
       style="fill:#000000">
      <g
         transform="translate(842,873)"
         id="g30">
        <path
           d="m 47.8848,24.6221 8.147,0.543 c 0.031,0.006 0.057,-0.009 0.079,-0.03 l 0.67,-0.672 v -0.141 l -21.292,-21.293 -0.141,10e-4 -0.674,0.673 0.517,8.225 z m 8.154,2.544 c -0.048,0 -0.094,-0.002 -0.141,-0.005 l -8.896,-0.594 -13.759,-13.758 -0.593,-8.896 c -0.04,-0.602 0.181,-1.194 0.608,-1.623 l 0.676,-0.676 c 0.396,-0.395 0.924,-0.614 1.484,-0.614 h 0.002 c 0.561,0 1.087,0.219 1.484,0.616 l 21.292,21.292 c 0.397,0.397 0.615,0.925 0.615,1.486 0,0.561 -0.219,1.087 -0.616,1.484 l -0.671,0.673 c -0.399,0.395 -0.932,0.615 -1.485,0.615 z"
           id="path6"
           inkscape:connector-curvature="0" />
        <path
           d="m 2.7725,35.6445 c -0.026,0 -0.052,0.011 -0.072,0.031 l -0.67,0.672 -10e-4,0.141 21.293,21.293 0.14,-10e-4 0.674,-0.673 -0.516,-8.225 -12.695,-12.694 -8.146,-0.543 c -0.002,0 -0.005,-10e-4 -0.007,-10e-4 m 20.62,24.166 c -0.56,0 -1.088,-0.219 -1.484,-0.615 L 0.6155,37.9025 c -0.397,-0.396 -0.615,-0.922 -0.615,-1.483 0,-0.561 0.217,-1.089 0.615,-1.486 l 0.672,-0.674 c 0.432,-0.428 1.03,-0.647 1.626,-0.61 l 8.895,0.594 13.759,13.758 0.594,8.897 c 0.041,0.601 -0.182,1.193 -0.609,1.622 l -0.676,0.676 c -0.396,0.396 -0.97,0.609 -1.484,0.614"
           id="path8"
           inkscape:connector-curvature="0" />
        <path
           d="m 41.8536,21.167 -13.229,-2.405 0.358,-1.967 13.228,2.405 z"
           id="path10"
           inkscape:connector-curvature="0" />
        <path
           d="m 44.5889,28.3809 -15,-3.405 0.443,-1.951 15,3.405 z"
           id="path12"
           inkscape:connector-curvature="0" />
        <path
           d="m 34.461,39.1562 -19.006,-7.222 0.711,-1.869 19.006,7.222 z"
           id="path14"
           inkscape:connector-curvature="0" />
        <path
           d="m 30.2842,43.377 -18.797,-6.431 0.647,-1.892 18.796,6.43 z"
           id="path16"
           inkscape:connector-curvature="0" />
        <path
           d="m 8.2696,6.9883 h 0.01 z m 3.535,-0.459 c -1.072,0 -2.076,0.414 -2.828,1.166 -0.752,0.752 -1.166,1.756 -1.166,2.828 0,1.072 0.414,2.076 1.166,2.828 l 32.778,27.123 -27.185,-32.848 c -0.689,-0.683 -1.693,-1.097 -2.765,-1.097 z m 37.477,42.471 c -0.226,0 -0.452,-0.076 -0.638,-0.23 L 7.6316,14.8293 c -1.199,-1.193 -1.821,-2.699 -1.821,-4.306 0,-1.606 0.622,-3.113 1.752,-4.242 1.129,-1.13 2.636,-1.752 4.242,-1.752 1.607,0 3.113,0.622 4.242,1.752 l 34.005,41.081 c 0.329,0.397 0.302,0.98 -0.063,1.345 -0.195,0.194 -0.45,0.293 -0.707,0.293 z"
           id="path18"
           inkscape:connector-curvature="0" />
        <path
           d="m 14.6329,14.3516 c -0.256,0 -0.512,-0.098 -0.707,-0.293 l -2.828,-2.828 c -0.391,-0.391 -0.391,-1.024 0,-1.414 0.39,-0.391 1.023,-0.391 1.414,0 l 2.828,2.828 c 0.391,0.391 0.391,1.023 0,1.414 -0.195,0.195 -0.451,0.293 -0.707,0.293"
           id="path20"
           inkscape:connector-curvature="0" />
        <path
           d="m 11.8047,26.417 c -1.606,0 -3.113,-0.622 -4.242,-1.752 -1.13,-1.129 -1.752,-2.636 -1.752,-4.242 0,-1.607 0.622,-3.113 1.752,-4.242 l 4.949,-4.951 c 0.391,-0.39 1.023,-0.39 1.414,0 0.391,0.391 0.391,1.024 0,1.415 l -4.949,4.95 c -0.752,0.752 -1.166,1.756 -1.166,2.828 0,1.072 0.414,2.076 1.166,2.828 0.752,0.752 1.756,1.166 2.828,1.166 1.072,0 2.076,-0.414 2.828,-1.166 l 2.122,-2.121 c 0.391,-0.391 1.024,-0.391 1.414,0 0.391,0.391 0.391,1.023 0,1.414 l -2.122,2.121 c -1.129,1.13 -2.636,1.752 -4.242,1.752"
           id="path22"
           inkscape:connector-curvature="0" />
        <path
           d="m 16.7559,9.4023 c -0.29,0 -0.577,-0.125 -0.774,-0.366 -0.351,-0.428 -0.288,-1.058 0.139,-1.407 1.223,-1.001 1.838,-1.915 1.881,-2.793 0.045,-0.911 -0.514,-1.934 -1.709,-3.129 -0.391,-0.391 -0.391,-1.024 0,-1.414 0.391,-0.391 1.024,-0.391 1.414,0 1.617,1.617 2.367,3.135 2.293,4.641 -0.073,1.475 -0.928,2.863 -2.611,4.241 -0.186,0.153 -0.41,0.227 -0.633,0.227"
           id="path24"
           inkscape:connector-curvature="0" />
        <path
           d="m 27.6739,20.3232 10.7,12.928 7.655,-7.656 -11.813,-11.814 z m 10.56,15.896 -13.261,-16.023 9.243,-9.243 14.642,14.642 z"
           id="path26"
           inkscape:connector-curvature="0" />
        <path
           d="m 12.7813,35.2158 11.813,11.813 9.938,-9.937 -12.928,-10.699 z m 11.813,14.642 -14.641,-14.642 11.524,-11.524 16.024,13.261 z"
           id="path28"
           inkscape:connector-curvature="0" />
      </g>
    </g>
  </g>
</svg>
